<?xml version="1.0" encoding="utf-8"?>
<!-- Generator: Adobe Illustrator 25.3.1, SVG Export Plug-In . SVG Version: 6.00 Build 0)  -->
<svg version="1.1" id="logo" xmlns="http://www.w3.org/2000/svg" xmlns:xlink="http://www.w3.org/1999/xlink" x="0px" y="0px"
	 viewBox="0 0 239 28.2" style="enable-background:new 0 0 239 28.2;" xml:space="preserve">
<style type="text/css">
	.st0{fill:#FAE06A;}
	.st1{fill:none;stroke:#FAE06A;stroke-width:1.33;stroke-linecap:round;}
	.st2{fill:none;stroke:#FAE06A;stroke-width:1.33;}
</style>
<path class="st0" d="M0,0l7,0.5l-2.5,6L0,0z"/>
<path class="st1" d="M3.9,12L8,1"/>
<circle class="st2" cx="12.1" cy="6.4" r="2.3"/>
<path class="st2" d="M19.1,11.9c0.7,0.5,1.4,1.1,2,1.8c0.5,0.6,0.4,1.5-0.2,2c0,0,0,0,0,0c-0.6,0.5-1.5,0.4-2-0.1L18,14.9
	c-0.3-0.3-0.6-0.5-1-0.6l-1.5-0.5c-0.3-0.1-0.5,0-0.6,0.3c0,0.1,0,0.2,0,0.3l2.9,10.8c0.3,1-0.3,2.1-1.3,2.3s-2.1-0.3-2.3-1.3l0,0
	L13,21.7c0-0.1-0.2-0.2-0.3-0.2c0,0,0,0,0,0l-0.5,0.3c-0.7,0.4-1.2,1.1-1.5,1.8l-0.5,1.5c-0.4,0.9-1.4,1.3-2.3,1
	c-0.8-0.3-1.3-1.2-1-2l0.8-2.5c0.3-1.1,1.1-2,2.1-2.6l2.1-1.1c0.2-0.1,0.3-0.4,0.2-0.6l-0.9-3.2c-0.1-0.2-0.3-0.4-0.5-0.3
	c0,0,0,0-0.1,0l-2.2,1c-0.8,0.4-1.8,0.4-2.7,0l-1.3-0.6c-0.7-0.3-1-1.1-0.7-1.8s1.1-1,1.8-0.7L6.3,12c0.5,0.2,1.1,0.2,1.6,0l2.6-1.1
	c1.6-0.7,3.3-0.9,5-0.5C16.8,10.7,18,11.2,19.1,11.9z"/>
<path class="st0" d="M154.6,11.4c0.6,0,1,0.4,1,1v0.5c0,0.6-0.4,1-1,1h-2.2c-0.6,0-1,0.4-1,1v8.6c0,0.6-0.4,1-1,1h-0.7
	c-0.6,0-1-0.4-1-1v-8.6c0-0.6-0.4-1-1-1h-2.2c-0.6,0-1-0.4-1-1v-0.4c0-0.6,0.4-1,1-1L154.6,11.4z"/>
<path class="st0" d="M163.6,14.4c0.6,0,1.1,0.1,1.6,0.4c0.3,0.1,0.5,0.3,0.8,0.5c0.2,0.1,0.4,0.1,0.5-0.1c0-0.1,0.1-0.1,0.1-0.2l0,0
	c0-0.2,0.1-0.3,0.3-0.3h1.1c0.6,0,1,0.4,1,1v7.9c0,0.6-0.4,1-1,1h-1.1c-0.2,0-0.3-0.2-0.3-0.3l0,0c0-0.3-0.6-0.5-0.8-0.3
	c-0.1,0.1-0.3,0.2-0.4,0.3c-0.6,0.4-1.2,0.6-1.9,0.6c-0.8,0-1.5-0.2-2.2-0.6c-0.7-0.4-1.2-1-1.6-1.8c-0.4-0.9-0.6-1.8-0.6-2.8
	c0-1,0.2-1.9,0.6-2.8c0.4-0.7,1-1.4,1.7-1.8C161.9,14.6,162.7,14.4,163.6,14.4z M164.1,16.8c-0.5,0-1,0.1-1.4,0.4
	c-0.4,0.3-0.7,0.6-0.9,1c-0.2,0.4-0.3,0.9-0.3,1.4c0,0.7,0.2,1.4,0.7,1.9c0.4,0.5,1.1,0.8,1.8,0.8c0.4,0,0.9-0.1,1.2-0.3
	c0.4-0.2,0.7-0.6,0.9-1c0.3-0.5,0.4-1,0.4-1.5v-1c0-0.3-0.1-0.5-0.3-0.7c-0.3-0.2-0.6-0.5-0.9-0.6C165,16.9,164.5,16.8,164.1,16.8z"
	/>
<path class="st0" d="M176.1,9.5c0.5,0,0.9,0.2,1.2,0.5c0.3,0.3,0.5,0.7,0.5,1.2c0,0.4-0.2,0.9-0.5,1.2c-0.7,0.7-1.7,0.7-2.4,0
	c-0.3-0.3-0.5-0.7-0.5-1.2c0-0.4,0.2-0.9,0.5-1.2C175.3,9.7,175.7,9.5,176.1,9.5z M176.6,14.6c0.6,0,1,0.4,1,1v7.9c0,0.6-0.4,1-1,1
	h-0.5c-0.6,0-1-0.4-1-1v-6c0-0.4-0.4-0.8-0.8-0.8l0,0l0,0c-0.4,0-0.8-0.4-0.8-0.8c0,0,0,0,0,0v-0.3c0-0.6,0.4-1,1-1L176.6,14.6z"/>
<path class="st0" d="M204.2,11.4c0.6,0,1,0.4,1,1c0,0.1,0,0.2-0.1,0.3l-3.7,11.1c-0.1,0.4-0.5,0.7-1,0.7H200c-0.4,0-0.8-0.3-0.9-0.7
	l-1.7-5c-0.2-0.5-0.8-0.8-1.3-0.6c-0.3,0.1-0.5,0.3-0.6,0.6l-1.7,5c-0.1,0.4-0.5,0.7-0.9,0.7h-0.4c-0.4,0-0.8-0.3-1-0.7l-3.7-11.1
	c-0.2-0.5,0.1-1.1,0.6-1.3c0.1,0,0.2-0.1,0.3-0.1h1c0.5,0,0.9,0.3,1,0.7l1.3,4.5c0.2,0.5,0.7,0.8,1.3,0.7c0.3-0.1,0.6-0.3,0.7-0.7
	l1.5-4.5c0.1-0.4,0.6-0.7,1-0.7h0.4c0.4,0,0.8,0.3,1,0.7l1.5,4.5c0.2,0.5,0.7,0.8,1.3,0.7c0.3-0.1,0.6-0.3,0.7-0.7l1.3-4.5
	c0.1-0.4,0.5-0.7,1-0.7H204.2z"/>
<path class="st0" d="M212.2,14.4c0.6,0,1.1,0.1,1.6,0.4c0.3,0.1,0.5,0.3,0.8,0.5c0.2,0.1,0.4,0.1,0.5-0.1c0-0.1,0.1-0.1,0.1-0.2l0,0
	c0-0.2,0.1-0.3,0.3-0.3h1.2c0.6,0,1,0.4,1,1v7.9c0,0.6-0.4,1-1,1h-1.1c-0.2,0-0.3-0.2-0.3-0.3l0,0c0-0.3-0.6-0.5-0.8-0.3
	c-0.1,0.1-0.3,0.2-0.4,0.3c-0.6,0.4-1.2,0.6-1.9,0.6c-0.8,0-1.5-0.2-2.2-0.6c-0.7-0.4-1.2-1-1.6-1.8c-0.4-0.9-0.6-1.8-0.6-2.8
	c0-1,0.2-1.9,0.6-2.8c0.4-0.7,1-1.4,1.7-1.8C210.6,14.6,211.4,14.4,212.2,14.4z M212.7,16.8c-0.5,0-0.9,0.1-1.3,0.4
	c-0.4,0.3-0.7,0.6-0.9,1c-0.2,0.4-0.3,0.9-0.3,1.4c0,0.7,0.2,1.4,0.7,1.9c0.4,0.5,1.1,0.8,1.8,0.8c0.4,0,0.9-0.1,1.2-0.3
	c0.4-0.2,0.7-0.6,0.9-1c0.3-0.5,0.4-1,0.4-1.5v-1c0-0.3-0.1-0.5-0.3-0.7c-0.3-0.2-0.6-0.5-0.9-0.6C213.6,16.9,213.2,16.8,212.7,16.8
	z"/>
<path class="st0" d="M224.2,10.4c0.6,0,1,0.4,1,1v12.1c0,0.6-0.4,1-1,1h-0.5c-0.6,0-1-0.4-1-1V11.4c0-0.6,0.4-1,1-1H224.2z"/>
<path class="st0" d="M231.7,10.4c0.6,0,1,0.4,1,1v5c0,0.6,0.4,1,1,1c0.3,0,0.6-0.1,0.7-0.3l2-2.2c0.2-0.2,0.5-0.3,0.7-0.3h0.3
	c0.6,0,1,0.4,1,1c0,0.3-0.1,0.5-0.3,0.7l-1.9,1.9c-0.4,0.4-0.4,0.9-0.1,1.3l2.6,3.3c0.3,0.4,0.2,1.1-0.2,1.4
	c-0.2,0.1-0.4,0.2-0.6,0.2h-0.5c-0.3,0-0.6-0.2-0.8-0.4l-2-2.6c-0.3-0.4-1-0.5-1.4-0.2c0,0-0.1,0.1-0.1,0.1l-0.1,0.1
	c-0.2,0.2-0.3,0.4-0.3,0.7v1.3c0,0.6-0.4,1-1,1h-0.5c-0.6,0-1-0.4-1-1V11.4c0-0.6,0.4-1,1-1H231.7z"/>
<path class="st0" d="M41.5,20.2c0.6,0,1,0.4,1,1V23c0,0.6-0.4,1-1,1h-7.1c-0.6,0-1-0.4-1-1v-1.8c0-0.6,0.4-1,1-1H41.5z M30.7,26.4
	c0,0.6,0.4,1,1,1h1.2c0.2,0,0.4-0.2,0.4-0.4l0,0l0,0c0-0.2,0.2-0.4,0.4-0.4l0,0h8.3c0.2,0,0.4,0.2,0.4,0.4c0,0,0,0,0,0l0,0
	c0,0.2,0.2,0.4,0.4,0.4h1.4c0.6,0,1-0.4,1-1v-7.7c0-0.6-0.4-1-1-1H31.7c-0.6,0-1,0.4-1,1V26.4z M41.1,10c-0.4,0.3-0.5,0.8-0.2,1.1
	c0,0,0.1,0.1,0.1,0.1l0,0c0.3,0.3,0.4,0.8,0.1,1.1c-0.1,0.2-0.3,0.3-0.6,0.3l-3.7,0.1c-0.6,0-1-0.4-1.1-0.9c0-0.2,0-0.4,0.2-0.6
	c0.5-0.8,1-1.7,1.5-2.5c0.3-0.5,0.1-1.1-0.4-1.4c-0.1,0-0.1,0-0.2-0.1l-1-0.3c-0.5-0.2-1.1,0.1-1.3,0.6c-0.7,1.7-1.6,3.4-2.6,4.9
	c-0.2,0.3-0.5,0.5-0.8,0.5l-1.8,0c-0.6,0-1,0.4-1,1c0,0,0,0,0,0.1v0.6c0,0.5,0.5,0.9,1,0.9c3.9-0.2,9.3-0.4,14.6-0.6
	c0.3,0,0.6,0.1,0.8,0.4c0.2,0.2,0.3,0.4,0.5,0.6c0.4,0.5,1,0.6,1.5,0.3c0,0,0,0,0,0l0.6-0.5c0.4-0.3,0.5-0.9,0.2-1.3
	c-1.4-1.8-3-3.5-4.8-5c-0.4-0.3-0.9-0.3-1.2,0L41.1,10z"/>
<path class="st0" d="M65.4,7.9c0-0.3-0.3-0.6-0.6-0.6h-2.6c-0.3,0-0.6,0.3-0.6,0.6l0,0c0,0.3,0.3,0.6,0.6,0.6l0,0h2.6
	C65.1,8.5,65.4,8.2,65.4,7.9C65.4,7.9,65.4,7.9,65.4,7.9z M55.5,10.1c0.3-0.4,0.3-0.9-0.1-1.2c0,0,0,0,0,0c-0.6-0.4-1.2-0.9-1.8-1.2
	c-0.4-0.2-0.9-0.1-1.2,0.2L52.1,8c-0.4,0.5-0.3,1.1,0.2,1.5c0,0,0,0,0.1,0c0.4,0.3,0.9,0.6,1.2,0.9c0.5,0.4,1.2,0.4,1.6-0.1
	L55.5,10.1z M55.1,15.7c0.3-0.4,0.3-0.9-0.1-1.3c0,0,0,0,0,0c-0.6-0.4-1.2-0.8-1.9-1.2c-0.4-0.2-0.9-0.1-1.2,0.3l-0.2,0.3
	c-0.4,0.5-0.3,1.1,0.2,1.5c0,0,0.1,0,0.1,0.1c0.4,0.3,0.9,0.6,1.3,0.9c0.5,0.4,1.2,0.3,1.6-0.2L55.1,15.7z M52.7,26.6
	c0.5,0.3,1.1,0.1,1.4-0.4c0,0,0-0.1,0-0.1c0.7-1.7,1.3-3.5,1.9-5.3c0.1-0.4,0-0.9-0.4-1.1l-0.3-0.2c-0.5-0.3-1.1-0.2-1.4,0.3
	c-0.1,0.1-0.1,0.2-0.1,0.3c-0.6,1.8-1.3,3.6-1.9,5c-0.2,0.5,0,1,0.4,1.3L52.7,26.6z M64,16.1c0,0.3-0.2,0.5-0.5,0.5c0,0,0,0,0,0
	h-0.1c-0.3,0-0.5-0.2-0.5-0.5c0,0,0,0,0,0l0,0c0-0.3,0.2-0.5,0.5-0.5c0,0,0,0,0,0h0.1C63.8,15.6,64,15.8,64,16.1
	C64,16.1,64,16.1,64,16.1z M57.8,17.6c0,0.2,0.2,0.3,0.4,0.3l0,0h0.5c0.5,0,0.8-0.4,0.8-0.8v0v-3.2c0-0.2,0.1-0.4,0.3-0.4h0.1
	c0.1,0,0.3,0.1,0.3,0.2l0,0c0,0.2,0.2,0.3,0.3,0.2c0,0,0,0,0.1,0l0.4-0.1c0.3-0.1,0.4-0.4,0.4-0.6c-0.1-0.5-0.3-1-0.5-1.5
	c-0.1-0.3-0.4-0.4-0.7-0.3c0,0,0,0,0,0l-0.3,0.1c-0.1,0-0.2,0.2-0.2,0.3c0,0,0,0,0,0l0,0c0,0.1,0,0.3-0.2,0.3c0,0,0,0-0.1,0l0,0
	c-0.1,0-0.3-0.1-0.3-0.3c0-0.1,0-0.1,0.1-0.2c0.4-0.5,0.9-1.1,1.3-1.6c0.1-0.1,0.2-0.1,0.3,0c0.1,0,0.1,0.1,0.1,0.2l0,0
	c0,0.1,0.1,0.2,0.2,0.2h5c0,0,0.1,0,0.1-0.1l0,0c0,0,0-0.1,0.1-0.1c0,0,0,0,0.1,0c0.3,0.3,0.6,0.6,0.9,0.9c0.2,0.2,0.2,0.6,0,0.8
	l0,0c-0.1,0.1-0.3,0.2-0.5,0.2l0,0c-0.4,0-0.7,0.3-0.7,0.7c0,0,0,0,0,0.1v0.1c0,0.4,0.4,0.7,0.8,0.7h0.8c0.2,0,0.4,0.1,0.4,0.3
	c0,0,0,0,0,0l0,0c0,0.2-0.2,0.3-0.4,0.3c0,0-0.1,0-0.1,0l-0.5-0.1c-0.3-0.1-0.5,0.1-0.6,0.4c0,0,0,0,0,0L66.2,15
	c-0.1,0.4-0.6,0.3-0.6-0.1l0,0c0-0.2-0.2-0.4-0.4-0.4l0,0h-2.8c-0.6,0-1,0.4-1,1v1.3c0,0.6,0.4,1,1,1h2.9c0.2,0,0.3-0.1,0.3-0.3l0,0
	c0-0.1,0.1-0.3,0.3-0.3c0.1,0,0.1,0,0.1,0c0.2,0.1,0.3,0.2,0.5,0.3c0.2,0.1,0.4,0.1,0.4-0.1l0,0c0.1-0.3,0.9-0.3,0.9,0.1v0.1
	c0,0.2,0.1,0.3,0.3,0.3l0,0h0.5c0.5,0,0.8-0.4,0.8-0.8v-3c0-0.3,0.2-0.5,0.4-0.5h0.2c0.1,0,0.2,0.1,0.3,0.2l0,0
	c0,0.1,0.2,0.2,0.3,0.2c0,0,0,0,0,0l0.5-0.2c0.3-0.1,0.5-0.4,0.4-0.8c-0.2-0.5-0.4-1-0.6-1.5c-0.2-0.3-0.5-0.4-0.8-0.3l-0.4,0.2
	c-0.2,0.1-0.2,0.2-0.2,0.4c0,0,0,0,0,0l0,0c0.1,0.1,0,0.3-0.1,0.4c0,0-0.1,0-0.1,0l0,0c-0.2,0-0.3-0.1-0.3-0.3c0-0.1,0-0.2,0.1-0.2
	c0.4-0.5,0.9-1,1.3-1.5c0.3-0.3,0.2-0.8-0.1-1.1c0,0-0.1-0.1-0.1-0.1l0,0c-0.4-0.2-0.8-0.1-1.1,0.3L68.7,10c-0.1,0.1-0.3,0.2-0.4,0
	c0,0,0,0,0,0l0,0c-0.1-0.1-0.1-0.3-0.1-0.4c0.3-0.4,0.6-0.8,0.8-1.2c0.2-0.4,0.1-0.8-0.2-1.1c0,0-0.1,0-0.1,0l0,0
	c-0.4-0.2-0.8,0-1,0.4c-0.2,0.4-0.4,0.8-0.6,1.1c0,0.1-0.1,0.1-0.2,0.1c0,0,0,0,0,0l0,0c-0.1-0.1-0.1-0.1-0.2,0c0,0,0,0,0,0
	l-0.3,0.4c0,0-0.1,0-0.1,0c0,0,0,0,0-0.1l0,0c0,0,0-0.1-0.1-0.1h-5c-0.1,0-0.1,0.1-0.1,0.1l0,0c0,0.1-0.1,0.1-0.1,0.1c0,0,0,0-0.1,0
	l-0.8-0.4c-0.3-0.1-0.6-0.1-0.8,0.2l-0.4,0.6c-0.1,0.2-0.3,0.2-0.5,0.1c0,0,0,0,0,0l0,0c-0.1-0.1-0.1-0.3-0.1-0.4
	c0.2-0.4,0.5-0.8,0.8-1.2c0.2-0.4,0.1-0.8-0.2-1c0,0,0,0-0.1,0l0,0c-0.4-0.2-0.9,0-1.1,0.4c0,0,0,0,0,0c-0.2,0.4-0.4,0.8-0.6,1.1
	c-0.1,0.1-0.2,0.1-0.3,0.1c0,0,0,0,0,0l0,0c-0.1-0.1-0.2,0-0.3,0.1c0,0,0,0,0,0l-0.3,0.5c-0.2,0.4-0.1,0.8,0.2,1.1
	c0.2,0.2,0.5,0.4,0.7,0.6c0.3,0.3,0.3,0.7,0,1l0,0c-0.1,0.2-0.3,0.3-0.6,0.3h-0.1c-0.4,0-0.8,0.4-0.8,0.8c0,0,0,0,0,0l0,0
	c0,0.4,0.4,0.7,0.8,0.7l0.9-0.1c0.2,0,0.4,0.1,0.4,0.3c0,0,0,0,0,0l0,0c0,0.2-0.2,0.4-0.4,0.4c0,0-0.1,0-0.1,0l-0.4-0.1
	c-0.4-0.1-0.7,0.1-0.8,0.5c-0.1,0.5-0.3,1-0.5,1.4c-0.2,0.4,0,0.9,0.4,1.1l0.3,0.2c0.1,0.1,0.3,0.1,0.4-0.1c0,0,0,0,0,0l0,0
	C56.9,17.1,57.7,17.2,57.8,17.6L57.8,17.6z M70.3,14.4c-0.4,0.1-0.6,0.5-0.5,0.9c0,0,0,0,0,0.1c0.2,0.5,0.3,0.9,0.4,1.3
	c0.1,0.4,0.5,0.7,0.9,0.5c0,0,0,0,0.1,0l0,0c0.3-0.1,0.5-0.5,0.4-0.8c-0.1-0.5-0.4-1.1-0.6-1.6C71,14.5,70.6,14.3,70.3,14.4
	L70.3,14.4z M61.4,13.3c0,0.3,0.3,0.6,0.6,0.6c0,0,0,0,0,0h3c0.3,0,0.6-0.3,0.6-0.6c0,0,0,0,0,0l0,0c0-0.3-0.3-0.6-0.6-0.6h-3
	C61.7,12.7,61.4,12.9,61.4,13.3z M65.6,11.6c0-0.3-0.3-0.6-0.6-0.6c0,0,0,0,0,0h-3c-0.3,0-0.6,0.2-0.6,0.6c0,0,0,0,0,0l0,0
	c0,0.3,0.2,0.6,0.6,0.6c0,0,0,0,0,0h3C65.3,12.2,65.6,11.9,65.6,11.6C65.6,11.6,65.6,11.6,65.6,11.6z M60.7,16.8
	c0.3-0.1,0.5-0.4,0.5-0.8c-0.1-0.4-0.2-0.8-0.3-1.2c-0.1-0.3-0.4-0.5-0.8-0.4l0,0c-0.4,0.1-0.6,0.4-0.5,0.8c0,0,0,0,0,0
	c0.1,0.3,0.2,0.7,0.2,1C59.9,16.6,60.3,16.9,60.7,16.8C60.7,16.8,60.7,16.8,60.7,16.8L60.7,16.8z M60.2,22.7c-0.2,0-0.3-0.2-0.3-0.4
	c0,0,0,0,0-0.1l0,0c0-0.1,0.2-0.3,0.3-0.2h8.5c0.6,0,1-0.4,1-1v-1.7c0-0.6-0.4-1-1-1H57.9c-0.4,0-0.7,0.3-0.7,0.7c0,0,0,0,0,0l0,0
	c0,0.4,0.3,0.7,0.7,0.7l0,0h9c0.2,0,0.3,0.2,0.3,0.3l0,0c0,0.2-0.2,0.3-0.3,0.3h-8.2c-0.5,0-0.9,0.3-1,0.8c-0.2,0.7-0.3,1.5-0.5,2.1
	c-0.2,0.5,0.1,1.1,0.6,1.3c0.1,0,0.2,0,0.3,0.1l0.8,0.1c0.2,0,0.4-0.1,0.4-0.3l0,0c0.1-0.2,0.2-0.3,0.4-0.3h7c0.7,0,1.2,0.8,0.7,1.2
	l0,0c-0.3,0.1-0.6,0.2-0.9,0.2c-0.4,0-1.1,0-1.9,0c-0.6,0-1,0.7-0.8,1.3l0,0c0.1,0.3,0.4,0.6,0.7,0.6c1.1,0,2.2,0,2.8,0
	c0.7,0,1.4-0.2,2.1-0.6c0.6-0.5,1-1.5,1.3-3.2l0,0c0.1-0.4-0.2-0.8-0.6-0.9c-0.1,0-0.1,0-0.2,0L60.2,22.7z"/>
<path class="st0" d="M85.9,22.1c0-0.6,0.4-1,1-1h5c0.6,0,1-0.4,1-1v-0.3c0-0.6-0.4-1-1-1h-5c-0.6,0-1-0.4-1-1v-0.7c0-0.6,0.4-1,1-1
	h6.5c0.6,0,1-0.4,1-1v-0.4c0-0.6-0.4-1-1-1h-6.5c-0.6,0-1-0.4-1-1v-0.1c0-0.6,0.4-1,1-1h4.8c0.6,0,1-0.4,1-1v-0.4c0-0.6-0.4-1-1-1
	h-4.8c-0.6,0-1-0.4-1-1V7.9c0-0.6-0.4-1-1-1h-0.7c-0.6,0-1,0.4-1,1v0.2c0,0.6-0.4,1-1,1h-4.4c-0.6,0-1,0.4-1,1v0.4c0,0.6,0.4,1,1,1
	h4.4c0.6,0,1,0.4,1,1v0.1c0,0.6-0.4,1-1,1h-6.3c-0.6,0-1,0.4-1,1v0.4c0,0.6,0.4,1,1,1h6.3c0.6,0,1,0.4,1,1v4.8
	c0,0.5-0.3,0.9-0.8,0.9c-0.2,0-0.4,0-0.6-0.2c-0.7-0.6-1.2-1.3-1.6-2.1c-0.1-0.2-0.1-0.5-0.1-0.7c0.1-0.5,0.2-1,0.3-1.5
	c0.1-0.5-0.3-1.1-0.8-1.1c0,0,0,0,0,0L79,17.1c-0.5-0.1-1.1,0.3-1.1,0.8c0,0,0,0,0,0c-0.3,2.4-1.2,4.8-2.6,6.7
	c-0.5,0.6-0.4,1.4,0.1,1.9l0.1,0.1c0.4,0.4,1,0.4,1.4,0c0.6-0.6,1.1-1.3,1.5-2.1c0.4-0.6,1.2-0.8,1.8-0.4c0.1,0,0.2,0.1,0.2,0.2
	c2.2,2.2,5.3,2.7,9,2.7h4c0.5,0,0.9-0.3,1-0.8l0,0c0.2-0.7-0.2-1.5-0.9-1.7c-0.1,0-0.2,0-0.2,0c-1.4,0-3.1,0-3.7,0
	c-0.9,0-1.8,0-2.7-0.2c-0.5-0.1-0.9-0.5-0.8-1L85.9,22.1z"/>
<path class="st0" d="M109.2,22.1c0-0.6,0.4-1,1-1h5c0.6,0,1-0.4,1-1v-0.3c0-0.6-0.4-1-1-1h-5c-0.6,0-1-0.4-1-1v-0.7c0-0.6,0.4-1,1-1
	h6.5c0.6,0,1-0.4,1-1v-0.4c0-0.6-0.4-1-1-1h-6.5c-0.6,0-1-0.4-1-1v-0.1c0-0.6,0.4-1,1-1h4.8c0.6,0,1-0.4,1-1v-0.4c0-0.6-0.4-1-1-1
	h-4.8c-0.6,0-1-0.4-1-1V7.9c0-0.6-0.4-1-1-1h-0.7c-0.6,0-1,0.4-1,1v0.2c0,0.6-0.4,1-1,1h-4.4c-0.6,0-1,0.4-1,1v0.4c0,0.6,0.4,1,1,1
	h4.4c0.6,0,1,0.4,1,1v0.1c0,0.6-0.4,1-1,1h-6.3c-0.6,0-1,0.4-1,1v0.4c0,0.6,0.4,1,1,1h6.3c0.6,0,1,0.4,1,1v4.8
	c0,0.5-0.3,0.9-0.8,0.9c-0.2,0-0.4,0-0.6-0.2c-0.7-0.6-1.2-1.3-1.6-2.1c-0.1-0.2-0.1-0.5-0.1-0.7c0.1-0.5,0.2-1,0.3-1.5
	c0.1-0.5-0.3-1.1-0.8-1.1c0,0,0,0,0,0l-0.6-0.1c-0.5-0.1-1.1,0.3-1.1,0.8c0,0,0,0,0,0c-0.3,2.4-1.2,4.8-2.6,6.7
	c-0.5,0.6-0.4,1.4,0.1,1.9l0.1,0.1c0.4,0.4,1,0.4,1.4,0c0.6-0.6,1.1-1.3,1.5-2.1c0.4-0.6,1.2-0.8,1.8-0.4c0.1,0,0.2,0.1,0.2,0.2
	c2.2,2.2,5.3,2.7,9,2.7h3.9c0.5,0,0.9-0.3,1-0.8l0,0c0.2-0.7-0.2-1.5-0.9-1.7c-0.1,0-0.2,0-0.2,0c-1.4,0-3.1,0-3.7,0
	c-0.9,0-1.8,0-2.7-0.2c-0.5-0.1-0.9-0.5-0.8-1L109.2,22.1z"/>
<path class="st0" d="M131.3,14.3c-1.6,0-2.8,1.3-2.8,2.8s1.3,2.8,2.8,2.8c1.6,0,2.8-1.3,2.8-2.8C134.1,15.6,132.8,14.3,131.3,14.3z"
	/>
</svg>
