<svg id="logo-s" xmlns="http://www.w3.org/2000/svg" viewBox="0 0 117.39 26.32"><defs><style>.cls-1{fill:#6e7d60;}.cls-2,.cls-3{fill:none;stroke:#6e7d60;stroke-width:1.33px;}.cls-2{stroke-linecap:round;}</style></defs><path class="cls-1" d="M181.9,19l7,.46-2.5,5.59Z" transform="translate(-181.9 -19.03)"/><path class="cls-2" d="M185.76,30.21,189.9,20" transform="translate(-181.9 -19.03)"/><path class="cls-3" d="M191.77,25A2.27,2.27,0,1,0,194,23,2.17,2.17,0,0,0,191.77,25Z" transform="translate(-181.9 -19.03)"/><path class="cls-3" d="M201,30.12a15.1,15.1,0,0,1,1.89,1.62,1.35,1.35,0,0,1-.17,2,1.47,1.47,0,0,1-1.91-.08l-.84-.79a3,3,0,0,0-1-.6l-1.45-.5a.51.51,0,0,0-.65.62l2.85,9.82a1.9,1.9,0,0,1-3.65,1.07l-1.21-4a.24.24,0,0,0-.35-.14l-.5.28a3.27,3.27,0,0,0-1.48,1.75L192,42.53a1.74,1.74,0,0,1-3.28-1.14l.74-2.21a4,4,0,0,1,2-2.3l2.19-1.12a.48.48,0,0,0,.25-.58l-.84-2.88a.44.44,0,0,0-.59-.28l-2.31,1a3.08,3.08,0,0,1-2.49,0l-1.39-.65a1.31,1.31,0,0,1,1-2.42l.86.3a2.18,2.18,0,0,0,1.55,0l2.64-1.07a7.85,7.85,0,0,1,5-.45A12.27,12.27,0,0,1,201,30.12Z" transform="translate(-181.9 -19.03)"/><path class="cls-1" d="M223.07,37.47a1,1,0,0,1,1,1v1.8a1,1,0,0,1-1,1h-7.15a1,1,0,0,1-1-1v-1.8a1,1,0,0,1,1-1Zm-10.83,6.19a1,1,0,0,0,1,1h1.24a.44.44,0,0,0,.44-.44.44.44,0,0,1,.44-.44h8.28a.43.43,0,0,1,.43.43.43.43,0,0,0,.43.43h1.39a1,1,0,0,0,1-1V36a1,1,0,0,0-1-1H213.24a1,1,0,0,0-1,1Zm10.38-16.4a.81.81,0,0,0-.08,1.26.79.79,0,0,1-.49,1.39l-3.65.15a1,1,0,0,1-.9-1.56c.5-.82,1-1.66,1.47-2.5a1,1,0,0,0-.57-1.42l-1-.31a1,1,0,0,0-1.25.58,39.69,39.69,0,0,1-2.59,4.95,1,1,0,0,1-.82.46l-1.82,0a1,1,0,0,0-1,1.06l0,.63a1,1,0,0,0,1,.94c3.92-.15,9.34-.37,14.55-.64a1,1,0,0,1,.82.37c.17.21.33.42.47.63a1.09,1.09,0,0,0,1.54.27l.65-.49a.93.93,0,0,0,.21-1.28,31.57,31.57,0,0,0-4.83-5,1,1,0,0,0-1.22,0Z" transform="translate(-181.9 -19.03)"/><path class="cls-1" d="M246.91,25.13a.63.63,0,0,0-.63-.62h-2.57a.63.63,0,1,0,0,1.25h2.57A.63.63,0,0,0,246.91,25.13ZM237,27.3a.88.88,0,0,0-.1-1.26,15.48,15.48,0,0,0-1.81-1.23,1,1,0,0,0-1.24.22l-.21.25a1.05,1.05,0,0,0,.23,1.54c.43.29.85.61,1.23.92a1.15,1.15,0,0,0,1.63-.1ZM236.61,33a.9.9,0,0,0-.15-1.29,17.7,17.7,0,0,0-1.86-1.14,1,1,0,0,0-1.21.27l-.2.26a1.05,1.05,0,0,0,.29,1.54c.43.27.87.58,1.26.87a1.16,1.16,0,0,0,1.6-.16Zm-2.32,10.91a1,1,0,0,0,1.4-.49c.65-1.67,1.3-3.51,1.85-5.27a1,1,0,0,0-.42-1.13l-.33-.21a1,1,0,0,0-1.51.53c-.62,1.8-1.34,3.6-1.94,5a1,1,0,0,0,.43,1.29Zm11.23-10.49a.48.48,0,0,1-.48.49h-.13a.49.49,0,1,1,0-1H245A.48.48,0,0,1,245.52,33.37Zm-6.25,1.5a.35.35,0,0,0,.35.35h.48a.82.82,0,0,0,.82-.82V31.19a.38.38,0,0,1,.35-.38h.09a.28.28,0,0,1,.29.24.27.27,0,0,0,.37.21l.4-.15a.57.57,0,0,0,.38-.65,10,10,0,0,0-.47-1.54.57.57,0,0,0-.74-.32l-.33.12a.25.25,0,0,0-.16.32.27.27,0,1,1-.45-.09c.43-.51.87-1.05,1.28-1.59a.2.2,0,0,1,.36.13.2.2,0,0,0,.2.2h5a.09.09,0,0,0,.08-.08.07.07,0,0,1,.12-.06,10.39,10.39,0,0,1,.87.89.62.62,0,0,1,0,.81l0,0a.69.69,0,0,1-.49.23.68.68,0,0,0-.67.75v.1a.77.77,0,0,0,.82.7l.77,0a.36.36,0,0,1,.38.35.35.35,0,0,1-.43.34l-.54-.12a.48.48,0,0,0-.57.36l-.07.28c-.11.42-.59.33-.59-.1a.42.42,0,0,0-.41-.41h-2.8a1,1,0,0,0-1,1V34a1,1,0,0,0,1,1h2.92a.28.28,0,0,0,.29-.28.27.27,0,0,1,.39-.25c.17.08.34.18.49.27s.36.09.44-.08c.16-.33.88-.27.88.1v.12a.32.32,0,0,0,.32.32h.51a.84.84,0,0,0,.84-.83v-3a.48.48,0,0,1,.44-.48h.2a.27.27,0,0,1,.27.21.24.24,0,0,0,.35.17l.52-.22a.65.65,0,0,0,.37-.76,12.25,12.25,0,0,0-.6-1.52.66.66,0,0,0-.84-.31l-.39.16a.29.29,0,0,0-.16.4.3.3,0,0,1-.26.43h0a.32.32,0,0,1-.24-.53c.44-.49.88-1,1.29-1.53a.76.76,0,0,0-.21-1.14.82.82,0,0,0-1.07.28c-.15.23-.31.46-.49.71a.31.31,0,0,1-.48,0,.35.35,0,0,1-.05-.43c.27-.38.55-.81.83-1.24a.78.78,0,0,0-.31-1.12.8.8,0,0,0-1,.37c-.18.37-.38.77-.58,1.15a.18.18,0,0,1-.25.05.16.16,0,0,0-.23,0l-.31.41a.09.09,0,0,1-.16-.06.1.1,0,0,0-.1-.09h-5a.14.14,0,0,0-.14.14.14.14,0,0,1-.21.12l-.62-.36a.59.59,0,0,0-.78.21c-.13.21-.27.42-.42.64a.34.34,0,0,1-.5.06.29.29,0,0,1,0-.37l.79-1.25a.75.75,0,0,0-.3-1.08.8.8,0,0,0-1.07.38c-.17.37-.36.75-.55,1.11a.21.21,0,0,1-.29.07A.21.21,0,0,0,238,26l-.31.48a.85.85,0,0,0,.19,1.09c.24.2.48.42.71.64a.72.72,0,0,1,0,1,.75.75,0,0,1-.56.27h-.15a.78.78,0,1,0,.08,1.55l.86-.06a.36.36,0,1,1,0,.72l-.35-.08a.67.67,0,0,0-.8.51,9.6,9.6,0,0,1-.48,1.43.87.87,0,0,0,.38,1.1l.31.16a.31.31,0,0,0,.45-.1C238.53,34.37,239.27,34.46,239.27,34.87Zm12.5-3.21a.71.71,0,0,0-.45.93c.17.44.32.9.44,1.33a.77.77,0,0,0,1,.54.67.67,0,0,0,.44-.83c-.15-.49-.35-1.05-.56-1.58A.68.68,0,0,0,251.77,31.66Zm-8.84-1.12a.59.59,0,0,0,.59.59h3a.6.6,0,1,0,0-1.19h-3A.59.59,0,0,0,242.93,30.54Zm4.18-1.7a.59.59,0,0,0-.6-.59h-3a.58.58,0,0,0-.59.59.59.59,0,0,0,.59.6h3A.6.6,0,0,0,247.11,28.84ZM242.26,34a.64.64,0,0,0,.46-.75c-.09-.37-.19-.77-.3-1.15a.64.64,0,0,0-.76-.44.67.67,0,0,0-.49.82c.08.33.15.66.22,1A.7.7,0,0,0,242.26,34Zm-.52,5.89a.34.34,0,0,1-.33-.43.33.33,0,0,1,.33-.25h8.48a1,1,0,0,0,1-1V36.6a1,1,0,0,0-1-1H239.48a.74.74,0,0,0,0,1.47h9a.34.34,0,1,1,0,.68h-8.23a1,1,0,0,0-1,.81c-.16.71-.34,1.45-.54,2.13a1.05,1.05,0,0,0,.85,1.34l.78.1a.42.42,0,0,0,.46-.28.43.43,0,0,1,.41-.31h7c.66,0,1.22.75.69,1.14a1.55,1.55,0,0,1-.92.18c-.35,0-1.07,0-1.88,0-.57,0-1,.7-.84,1.25a.74.74,0,0,0,.71.57c1.14,0,2.2,0,2.8,0a3.36,3.36,0,0,0,2-.57c.6-.49,1-1.45,1.35-3.21a.8.8,0,0,0-.83-1Z" transform="translate(-181.9 -19.03)"/><path class="cls-1" d="M267.48,39.37a1,1,0,0,1,1-1h5a1,1,0,0,0,1-1V37a1,1,0,0,0-1-1h-5a1,1,0,0,1-1-1v-.67a1,1,0,0,1,1-1H275a1,1,0,0,0,1-1v-.44a1,1,0,0,0-1-1h-6.49a1,1,0,0,1-1-1V29.8a1,1,0,0,1,1-1h4.77a1,1,0,0,0,1-1v-.4a1,1,0,0,0-1-1h-4.77a1,1,0,0,1-1-1v-.24a1,1,0,0,0-1-1h-.69a1,1,0,0,0-1,1v.24a1,1,0,0,1-1,1h-4.38a1,1,0,0,0-1,1v.4a1,1,0,0,0,1,1h4.38a1,1,0,0,1,1,1v.13a1,1,0,0,1-1,1h-6.31a1,1,0,0,0-1,1v.44a1,1,0,0,0,1,1h6.31a1,1,0,0,1,1,1v4.79a.84.84,0,0,1-1.35.73,7.21,7.21,0,0,1-1.65-2.07,1,1,0,0,1-.07-.69c.13-.51.24-1,.34-1.51a1,1,0,0,0-.86-1.16l-.66-.07a1,1,0,0,0-1.13.89A13.73,13.73,0,0,1,256.77,42a1.42,1.42,0,0,0,.11,1.9L257,44a1,1,0,0,0,1.39,0A9.92,9.92,0,0,0,259.91,42a1.29,1.29,0,0,1,2-.26c2.24,2.15,5.28,2.7,9,2.7h4a1.1,1.1,0,0,0,1-.8,1.33,1.33,0,0,0-1.12-1.71H271a23.38,23.38,0,0,1-2.69-.14,1,1,0,0,1-.83-1Z" transform="translate(-181.9 -19.03)"/><path class="cls-1" d="M290.8,39.37a1,1,0,0,1,1-1h5a1,1,0,0,0,1-1V37a1,1,0,0,0-1-1h-5a1,1,0,0,1-1-1v-.67a1,1,0,0,1,1-1h6.49a1,1,0,0,0,1-1v-.44a1,1,0,0,0-1-1H291.8a1,1,0,0,1-1-1V29.8a1,1,0,0,1,1-1h4.77a1,1,0,0,0,1-1v-.4a1,1,0,0,0-1-1H291.8a1,1,0,0,1-1-1v-.24a1,1,0,0,0-1-1h-.69a1,1,0,0,0-1,1v.24a1,1,0,0,1-1,1h-4.38a1,1,0,0,0-1,1v.4a1,1,0,0,0,1,1h4.38a1,1,0,0,1,1,1v.13a1,1,0,0,1-1,1H280.8a1,1,0,0,0-1,1v.44a1,1,0,0,0,1,1h6.31a1,1,0,0,1,1,1v4.79a.84.84,0,0,1-1.35.73,7.21,7.21,0,0,1-1.65-2.07,1,1,0,0,1-.07-.69c.13-.51.24-1,.34-1.51a1,1,0,0,0-.86-1.16l-.66-.07a1,1,0,0,0-1.13.89A13.73,13.73,0,0,1,280.09,42a1.42,1.42,0,0,0,.11,1.9l.13.11a1,1,0,0,0,1.39,0A9.92,9.92,0,0,0,283.23,42a1.29,1.29,0,0,1,2-.26c2.25,2.15,5.28,2.7,9,2.7h4a1.1,1.1,0,0,0,1-.8A1.33,1.33,0,0,0,298,41.89h-3.72a23.38,23.38,0,0,1-2.69-.14,1,1,0,0,1-.83-1Z" transform="translate(-181.9 -19.03)"/></svg>