<svg id="logo" xmlns="http://www.w3.org/2000/svg" viewBox="0 0 238.98 28.18"><defs><style>.cls-1{fill:#6e7d60;}.cls-2,.cls-3{fill:none;stroke:#6e7d60;stroke-width:1.33px;}.cls-2{stroke-linecap:round;}</style></defs><path class="cls-1" d="M121,18.1l7,.5-2.5,6Z" transform="translate(-121 -18.1)"/><path class="cls-2" d="M124.86,30.1l4.14-11" transform="translate(-121 -18.1)"/><circle class="cls-3" cx="12.13" cy="6.43" r="2.26"/><path class="cls-3" d="M140.08,30a15.38,15.38,0,0,1,2,1.81,1.41,1.41,0,0,1-.17,2,1.52,1.52,0,0,1-2-.1L139,33a2.62,2.62,0,0,0-1-.63l-1.46-.55a.5.5,0,0,0-.66.59l2.92,10.8a1.91,1.91,0,0,1-3.69,1L134,39.82a.25.25,0,0,0-.36-.14l-.48.29a3.3,3.3,0,0,0-1.47,1.83l-.51,1.54a1.76,1.76,0,0,1-3.34-1.08l.79-2.5a4.4,4.4,0,0,1,2.1-2.57l2.09-1.14a.51.51,0,0,0,.25-.59l-.86-3.16a.42.42,0,0,0-.57-.27l-2.22,1a3.06,3.06,0,0,1-2.69,0l-1.29-.64a1.39,1.39,0,0,1,1.11-2.55l.72.27a2.08,2.08,0,0,0,1.57,0l2.63-1.15a7.45,7.45,0,0,1,5-.48A11.66,11.66,0,0,1,140.08,30Z" transform="translate(-121 -18.1)"/><path class="cls-1" d="M275.61,29.51a1,1,0,0,1,1,1V31a1,1,0,0,1-1,1h-2.18a1,1,0,0,0-1,1v8.59a1,1,0,0,1-1,1h-.7a1,1,0,0,1-1-1V33a1,1,0,0,0-1-1h-2.18a1,1,0,0,1-1-1v-.44a1,1,0,0,1,1-1Z" transform="translate(-121 -18.1)"/><path class="cls-1" d="M284.56,32.48a3.82,3.82,0,0,1,1.62.37,4.54,4.54,0,0,1,.78.45.37.37,0,0,0,.59-.26h0a.31.31,0,0,1,.31-.31H289a1,1,0,0,1,1,1V41.6a1,1,0,0,1-1,1h-1.15a.34.34,0,0,1-.33-.34h0c0-.34-.56-.52-.82-.29a3.84,3.84,0,0,1-.43.35,3.26,3.26,0,0,1-1.91.57,4.18,4.18,0,0,1-2.21-.61,4.35,4.35,0,0,1-1.6-1.76,5.93,5.93,0,0,1-.61-2.79,6.1,6.1,0,0,1,.61-2.81,4.6,4.6,0,0,1,1.66-1.8A4.36,4.36,0,0,1,284.56,32.48Zm.51,2.42a2.27,2.27,0,0,0-1.35.41,2.75,2.75,0,0,0-.86,1,3.21,3.21,0,0,0-.31,1.38,2.81,2.81,0,0,0,.67,1.9,2.25,2.25,0,0,0,1.79.78,2.29,2.29,0,0,0,1.23-.35,2.61,2.61,0,0,0,.94-1,3,3,0,0,0,.37-1.54v-1a.89.89,0,0,0-.28-.67,4.32,4.32,0,0,0-.87-.62A2.73,2.73,0,0,0,285.07,34.9Z" transform="translate(-121 -18.1)"/><path class="cls-1" d="M297.15,27.6a1.64,1.64,0,0,1,1.21.5,1.58,1.58,0,0,1,.51,1.17,1.61,1.61,0,0,1-.51,1.18,1.7,1.7,0,0,1-2.91-1.18,1.59,1.59,0,0,1,.49-1.17A1.64,1.64,0,0,1,297.15,27.6Zm.44,5.13a1,1,0,0,1,1,1V41.6a1,1,0,0,1-1,1h-.48a1,1,0,0,1-1-1v-6a.79.79,0,0,0-.79-.79h0a.79.79,0,0,1-.79-.79v-.32a1,1,0,0,1,1-1Z" transform="translate(-121 -18.1)"/><path class="cls-1" d="M325.2,29.51a1,1,0,0,1,.95,1.32l-3.74,11.08a1,1,0,0,1-1,.69H321a1,1,0,0,1-.94-.68l-1.73-5a1,1,0,0,0-1.89,0l-1.74,5a1,1,0,0,1-.94.68h-.44a1,1,0,0,1-.95-.69l-3.69-11.08a1,1,0,0,1,.95-1.32h.95a1,1,0,0,1,1,.72l1.31,4.48a1,1,0,0,0,1.91,0l1.51-4.55a1,1,0,0,1,1-.68h.37a1,1,0,0,1,.95.69l1.5,4.54a1,1,0,0,0,1.91,0l1.33-4.49a1,1,0,0,1,1-.71Z" transform="translate(-121 -18.1)"/><path class="cls-1" d="M333.22,32.48a3.89,3.89,0,0,1,1.62.37,4.45,4.45,0,0,1,.77.45.37.37,0,0,0,.59-.26h0a.31.31,0,0,1,.31-.31h1.17a1,1,0,0,1,1,1V41.6a1,1,0,0,1-1,1h-1.14a.34.34,0,0,1-.34-.34h0c0-.34-.56-.52-.81-.29a5.2,5.2,0,0,1-.44.35,3.24,3.24,0,0,1-1.91.57,4.21,4.21,0,0,1-2.21-.61,4.35,4.35,0,0,1-1.6-1.76,5.93,5.93,0,0,1-.6-2.79,6.1,6.1,0,0,1,.6-2.81,4.6,4.6,0,0,1,1.66-1.8A4.37,4.37,0,0,1,333.22,32.48Zm.5,2.42a2.22,2.22,0,0,0-1.34.41,2.58,2.58,0,0,0-.86,1,3.08,3.08,0,0,0-.32,1.38,2.86,2.86,0,0,0,.67,1.9,2.25,2.25,0,0,0,1.79.78,2.35,2.35,0,0,0,1.24-.35,2.58,2.58,0,0,0,.93-1,3,3,0,0,0,.37-1.54v-1a.89.89,0,0,0-.28-.67,4.32,4.32,0,0,0-.87-.62A2.7,2.7,0,0,0,333.72,34.9Z" transform="translate(-121 -18.1)"/><path class="cls-1" d="M345.21,28.53a1,1,0,0,1,1,1V41.6a1,1,0,0,1-1,1h-.48a1,1,0,0,1-1-1V29.53a1,1,0,0,1,1-1Z" transform="translate(-121 -18.1)"/><path class="cls-1" d="M352.72,28.53a1,1,0,0,1,1,1v5a1,1,0,0,0,1.74.68l2-2.17a1,1,0,0,1,.73-.33h.26a1,1,0,0,1,.71,1.71l-1.93,1.94a1,1,0,0,0-.07,1.33L359.76,41A1,1,0,0,1,359,42.6h-.55a1,1,0,0,1-.79-.4l-2-2.62a1,1,0,0,0-1.5-.1l-.13.13a1,1,0,0,0-.29.7V41.6a1,1,0,0,1-1,1h-.48a1,1,0,0,1-1-1V29.53a1,1,0,0,1,1-1Z" transform="translate(-121 -18.1)"/><path class="cls-1" d="M162.51,38.29a1,1,0,0,1,1,1V41.1a1,1,0,0,1-1,1h-7.15a1,1,0,0,1-1-1V39.29a1,1,0,0,1,1-1Zm-10.83,6.2a1,1,0,0,0,1,1h1.24a.44.44,0,0,0,.44-.44h0a.44.44,0,0,1,.44-.44h8.29a.42.42,0,0,1,.42.43h0a.44.44,0,0,0,.43.43h1.39a1,1,0,0,0,1-1V36.81a1,1,0,0,0-1-1H152.68a1,1,0,0,0-1,1Zm10.38-16.4a.81.81,0,0,0-.08,1.26h0a.79.79,0,0,1-.48,1.39l-3.66.15a1,1,0,0,1-.9-1.56c.51-.82,1-1.67,1.47-2.5a1,1,0,0,0-.57-1.42l-1-.31a1,1,0,0,0-1.26.58A39.69,39.69,0,0,1,153,30.63a1,1,0,0,1-.82.46l-1.82.05a1,1,0,0,0-1,1.06l0,.63a1,1,0,0,0,1,.94c3.93-.15,9.34-.37,14.55-.64a1,1,0,0,1,.83.37c.16.21.32.42.46.63a1.11,1.11,0,0,0,1.55.27l.64-.49a.93.93,0,0,0,.21-1.28,32,32,0,0,0-4.82-5,1,1,0,0,0-1.23,0Z" transform="translate(-121 -18.1)"/><path class="cls-1" d="M186.35,26a.63.63,0,0,0-.63-.62h-2.57a.63.63,0,0,0-.63.62h0a.63.63,0,0,0,.63.63h2.57a.63.63,0,0,0,.63-.63Zm-9.88,2.16a.87.87,0,0,0-.09-1.25,17.38,17.38,0,0,0-1.81-1.23,1,1,0,0,0-1.24.21l-.22.26a1.06,1.06,0,0,0,.23,1.53c.43.3.86.62,1.23.93a1.17,1.17,0,0,0,1.63-.1Zm-.42,5.66a.89.89,0,0,0-.15-1.29A16.17,16.17,0,0,0,174,31.35a1,1,0,0,0-1.2.27l-.21.26a1.06,1.06,0,0,0,.29,1.54,14.73,14.73,0,0,1,1.26.87,1.17,1.17,0,0,0,1.6-.16Zm-2.32,10.91a1,1,0,0,0,1.4-.49c.66-1.67,1.3-3.51,1.85-5.27a1,1,0,0,0-.42-1.13l-.33-.21a1,1,0,0,0-1.51.53c-.62,1.8-1.33,3.6-1.94,5a1,1,0,0,0,.43,1.3ZM185,34.2a.48.48,0,0,1-.48.49h-.13a.49.49,0,0,1-.49-.49h0a.48.48,0,0,1,.49-.48h.13a.47.47,0,0,1,.48.48Zm-6.24,1.5a.35.35,0,0,0,.35.35h.47a.83.83,0,0,0,.83-.83V32a.37.37,0,0,1,.34-.37h.09a.28.28,0,0,1,.29.24h0a.28.28,0,0,0,.38.21l.4-.15a.58.58,0,0,0,.37-.65,10,10,0,0,0-.47-1.54.57.57,0,0,0-.74-.32l-.33.12a.25.25,0,0,0-.16.32h0a.27.27,0,0,1-.24.35h0a.27.27,0,0,1-.2-.44c.43-.51.86-1.06,1.27-1.59a.2.2,0,0,1,.36.12h0a.2.2,0,0,0,.2.2h5a.08.08,0,0,0,.08-.07h0a.07.07,0,0,1,.12-.06,10.39,10.39,0,0,1,.87.89.62.62,0,0,1,0,.81l0,0a.66.66,0,0,1-.49.24h0a.68.68,0,0,0-.67.74v.11a.78.78,0,0,0,.83.7l.77,0a.35.35,0,0,1,.37.35h0a.35.35,0,0,1-.43.34l-.53-.12a.48.48,0,0,0-.58.36l-.07.28c-.11.42-.59.33-.59-.1h0a.41.41,0,0,0-.41-.41h-2.79a1,1,0,0,0-1,1v1.3a1,1,0,0,0,1,1h2.91a.29.29,0,0,0,.29-.28h0a.27.27,0,0,1,.4-.25,5.46,5.46,0,0,1,.48.27c.17.09.36.09.45-.08h0c.15-.33.87-.27.87.1v.12a.32.32,0,0,0,.32.32h.51a.84.84,0,0,0,.84-.84v-3a.48.48,0,0,1,.44-.48h.2a.27.27,0,0,1,.27.21h0a.26.26,0,0,0,.36.17l.51-.22a.64.64,0,0,0,.37-.76,11.66,11.66,0,0,0-.6-1.52.65.65,0,0,0-.84-.31l-.39.16a.29.29,0,0,0-.16.4h0a.3.3,0,0,1-.26.43h0a.32.32,0,0,1-.25-.53c.44-.49.88-1,1.3-1.53a.76.76,0,0,0-.22-1.14h0a.79.79,0,0,0-1.06.28l-.5.71a.31.31,0,0,1-.48,0h0a.35.35,0,0,1-.05-.43c.27-.39.55-.81.83-1.25a.77.77,0,0,0-.3-1.11h0a.79.79,0,0,0-1,.37c-.18.37-.39.77-.59,1.14a.17.17,0,0,1-.25.06h0a.15.15,0,0,0-.23,0l-.3.41a.1.1,0,0,1-.17-.06h0a.09.09,0,0,0-.09-.09h-5a.14.14,0,0,0-.14.14h0a.14.14,0,0,1-.2.12L180.9,27a.59.59,0,0,0-.78.21l-.41.64a.34.34,0,0,1-.5.06h0a.29.29,0,0,1-.05-.38c.25-.38.52-.81.79-1.25a.75.75,0,0,0-.3-1.07h0a.8.8,0,0,0-1.07.38c-.17.36-.36.75-.55,1.1a.21.21,0,0,1-.29.08h0a.2.2,0,0,0-.28.06l-.3.48a.84.84,0,0,0,.18,1.09c.24.2.49.42.71.64a.71.71,0,0,1,0,1h0a.79.79,0,0,1-.57.28h-.15a.79.79,0,0,0-.75.87h0a.78.78,0,0,0,.83.69l.86-.06a.37.37,0,0,1,.4.36h0a.37.37,0,0,1-.45.36l-.35-.08a.68.68,0,0,0-.8.5,8.39,8.39,0,0,1-.48,1.44.87.87,0,0,0,.38,1.1l.31.16a.32.32,0,0,0,.46-.1h0c.18-.36.93-.27.93.14Zm12.5-3.21a.7.7,0,0,0-.46.92c.17.45.32.91.44,1.34a.77.77,0,0,0,1,.53h0a.66.66,0,0,0,.43-.82c-.15-.49-.35-1.06-.56-1.58a.67.67,0,0,0-.82-.39Zm-8.85-1.13a.59.59,0,0,0,.59.6h3a.6.6,0,0,0,.6-.6h0a.6.6,0,0,0-.6-.59h-3a.59.59,0,0,0-.59.59Zm4.18-1.69a.59.59,0,0,0-.6-.59h-3a.58.58,0,0,0-.59.59h0a.58.58,0,0,0,.59.59h3a.59.59,0,0,0,.6-.59Zm-4.85,5.2a.63.63,0,0,0,.46-.75c-.08-.37-.19-.77-.3-1.16a.62.62,0,0,0-.75-.43h0a.67.67,0,0,0-.5.82c.08.33.16.66.22,1a.7.7,0,0,0,.87.54Zm-.52,5.89a.35.35,0,0,1-.33-.43h0a.34.34,0,0,1,.33-.25h8.48a1,1,0,0,0,1-1V37.42a1,1,0,0,0-1-1H178.93a.74.74,0,0,0-.74.74h0a.74.74,0,0,0,.74.74h9a.34.34,0,0,1,.34.34h0a.34.34,0,0,1-.34.34h-8.23a1,1,0,0,0-1,.81c-.16.71-.34,1.45-.54,2.13a1,1,0,0,0,.86,1.33l.78.11a.42.42,0,0,0,.45-.29h0a.43.43,0,0,1,.41-.31h7c.66,0,1.22.76.69,1.15h0a1.56,1.56,0,0,1-.92.17c-.35,0-1.06,0-1.88,0-.57,0-1,.7-.84,1.26h0a.74.74,0,0,0,.71.57c1.14,0,2.2,0,2.8,0a3.53,3.53,0,0,0,2.05-.57c.59-.49,1-1.46,1.34-3.22h0a.79.79,0,0,0-.83-.94Z" transform="translate(-121 -18.1)"/><path class="cls-1" d="M206.92,40.2a1,1,0,0,1,1-1h5a1,1,0,0,0,1-1v-.34a1,1,0,0,0-1-1h-5a1,1,0,0,1-1-1V35.2a1,1,0,0,1,1-1h6.49a1,1,0,0,0,1-1v-.44a1,1,0,0,0-1-1h-6.49a1,1,0,0,1-1-1v-.13a1,1,0,0,1,1-1h4.78a1,1,0,0,0,1-1v-.4a1,1,0,0,0-1-1h-4.78a1,1,0,0,1-1-1V26a1,1,0,0,0-1-1h-.68a1,1,0,0,0-1,1v.25a1,1,0,0,1-1,1h-4.38a1,1,0,0,0-1,1v.4a1,1,0,0,0,1,1h4.38a1,1,0,0,1,1,1v.13a1,1,0,0,1-1,1h-6.32a1,1,0,0,0-1,1v.44a1,1,0,0,0,1,1h6.32a1,1,0,0,1,1,1V40a.84.84,0,0,1-1.36.74,7,7,0,0,1-1.64-2.07.94.94,0,0,1-.08-.7c.13-.5.24-1,.34-1.51a1,1,0,0,0-.86-1.15l-.65-.07a1,1,0,0,0-1.14.89,13.64,13.64,0,0,1-2.64,6.71,1.41,1.41,0,0,0,.12,1.9l.12.11a1,1,0,0,0,1.39,0,9.92,9.92,0,0,0,1.51-2.07,1.29,1.29,0,0,1,2-.26c2.25,2.15,5.28,2.69,9,2.69h4a1.09,1.09,0,0,0,1-.79h0a1.34,1.34,0,0,0-1.12-1.72c-1.42,0-3.07,0-3.72,0a21.29,21.29,0,0,1-2.69-.15.94.94,0,0,1-.83-1Z" transform="translate(-121 -18.1)"/><path class="cls-1" d="M230.24,40.2a1,1,0,0,1,1-1h5a1,1,0,0,0,1-1v-.34a1,1,0,0,0-1-1h-5a1,1,0,0,1-1-1V35.2a1,1,0,0,1,1-1h6.49a1,1,0,0,0,1-1v-.44a1,1,0,0,0-1-1h-6.49a1,1,0,0,1-1-1v-.13a1,1,0,0,1,1-1H236a1,1,0,0,0,1-1v-.4a1,1,0,0,0-1-1h-4.78a1,1,0,0,1-1-1V26a1,1,0,0,0-1-1h-.68a1,1,0,0,0-1,1v.25a1,1,0,0,1-1,1h-4.38a1,1,0,0,0-1,1v.4a1,1,0,0,0,1,1h4.38a1,1,0,0,1,1,1v.13a1,1,0,0,1-1,1h-6.32a1,1,0,0,0-1,1v.44a1,1,0,0,0,1,1h6.32a1,1,0,0,1,1,1V40a.84.84,0,0,1-1.36.74,7,7,0,0,1-1.64-2.07.94.94,0,0,1-.08-.7c.13-.5.24-1,.34-1.51a1,1,0,0,0-.86-1.15l-.65-.07a1,1,0,0,0-1.14.89,13.64,13.64,0,0,1-2.64,6.71,1.41,1.41,0,0,0,.12,1.9l.12.11a1,1,0,0,0,1.39,0,9.92,9.92,0,0,0,1.51-2.07,1.29,1.29,0,0,1,2-.26c2.25,2.15,5.28,2.69,9,2.69h3.95a1.09,1.09,0,0,0,1-.79h0a1.34,1.34,0,0,0-1.12-1.72c-1.42,0-3.07,0-3.72,0a21.29,21.29,0,0,1-2.69-.15.94.94,0,0,1-.83-1Z" transform="translate(-121 -18.1)"/><path class="cls-1" d="M252.28,32.42a2.82,2.82,0,1,0,2.82,2.82A2.83,2.83,0,0,0,252.28,32.42Z" transform="translate(-121 -18.1)"/></svg>