<?xml version="1.0" encoding="utf-8"?>
<!-- Generator: Adobe Illustrator 25.3.1, SVG Export Plug-In . SVG Version: 6.00 Build 0)  -->
<svg version="1.1" id="logo-s" xmlns="http://www.w3.org/2000/svg" xmlns:xlink="http://www.w3.org/1999/xlink" x="0px" y="0px"
	 viewBox="0 0 117.4 26.3" style="enable-background:new 0 0 117.4 26.3;" xml:space="preserve">
<style type="text/css">
	.st0{fill:#FAE06A;}
	.st1{fill:none;stroke:#FAE06A;stroke-width:1.33;stroke-linecap:round;}
	.st2{fill:none;stroke:#FAE06A;stroke-width:1.33;}
</style>
<path class="st0" d="M0.4,0l7,0.5L4.9,6L0.4,0z"/>
<path class="st1" d="M3.9,11.2L8,1"/>
<path class="st2" d="M9.9,6c-0.1,1.2,0.7,2.4,2,2.5s2.4-0.7,2.5-2c0.1-1.2-0.7-2.4-2-2.5c-0.1,0-0.2,0-0.3,0C10.9,3.9,10,4.8,9.9,6z
	"/>
<path class="st2" d="M19.1,11.1c0.7,0.5,1.3,1,1.9,1.6c0.5,0.5,0.5,1.4-0.1,1.9c0,0-0.1,0.1-0.1,0.1c-0.6,0.4-1.4,0.4-1.9-0.1
	l-0.8-0.8c-0.3-0.3-0.6-0.5-1-0.6l-1.4-0.5c-0.3-0.1-0.6,0.1-0.6,0.3c0,0.1,0,0.2,0,0.3l2.9,9.8c0.3,1-0.3,2.1-1.3,2.4
	s-2.1-0.3-2.4-1.3l0,0l-1.2-4c0-0.1-0.2-0.2-0.3-0.2c0,0,0,0-0.1,0l-0.5,0.3c-0.7,0.4-1.2,1-1.5,1.8l-0.5,1.4
	c-0.4,0.9-1.4,1.3-2.3,0.9c-0.8-0.3-1.2-1.2-1-2.1l0.7-2.2c0.3-1,1.1-1.8,2-2.3l2.2-1.1c0.2-0.1,0.3-0.4,0.2-0.6l-0.8-2.9
	c-0.1-0.2-0.3-0.4-0.5-0.3c0,0,0,0,0,0l-2.3,1c-0.8,0.4-1.7,0.4-2.5,0l-1.4-0.7c-0.7-0.3-1-1.1-0.7-1.7c0.3-0.6,1-0.9,1.7-0.7
	l0.9,0.3c0.5,0.2,1.1,0.2,1.6,0l2.6-1.1c1.6-0.7,3.3-0.9,5-0.5C16.7,10,18,10.4,19.1,11.1z"/>
<path class="st0" d="M41.2,18.4c0.6,0,1,0.4,1,1v1.8c0,0.6-0.4,1-1,1H34c-0.6,0-1-0.4-1-1v-1.8c0-0.6,0.4-1,1-1H41.2z M30.3,24.6
	c0,0.6,0.4,1,1,1h1.2c0.2,0,0.4-0.2,0.4-0.4l0,0c0-0.2,0.2-0.4,0.4-0.4l0,0h8.3c0.2,0,0.4,0.2,0.4,0.4s0.2,0.4,0.4,0.4H44
	c0.6,0,1-0.4,1-1V17c0-0.6-0.4-1-1-1H31.3c-0.6,0-1,0.4-1,1V24.6z M40.7,8.2c-0.4,0.3-0.5,0.8-0.2,1.1c0,0,0.1,0.1,0.1,0.1
	c0.3,0.3,0.4,0.8,0.1,1.1c-0.1,0.2-0.4,0.3-0.6,0.3L36.5,11c-0.6,0-1-0.4-1.1-0.9c0-0.2,0-0.4,0.2-0.6c0.5-0.8,1-1.7,1.5-2.5
	c0.3-0.5,0.1-1.1-0.4-1.4c-0.1,0-0.1,0-0.2-0.1l-1-0.3c-0.5-0.2-1.1,0.1-1.2,0.6c-0.7,1.7-1.6,3.4-2.6,4.9c-0.2,0.3-0.5,0.5-0.8,0.5
	H29c-0.6,0-1,0.4-1,1c0,0,0,0,0,0.1v0.6c0,0.5,0.5,0.9,1,0.9c3.9-0.2,9.3-0.4,14.6-0.6c0.3,0,0.6,0.1,0.8,0.4
	c0.2,0.2,0.3,0.4,0.5,0.6c0.3,0.5,1,0.6,1.5,0.3c0,0,0,0,0,0l0.6-0.5c0.4-0.3,0.5-0.9,0.2-1.3c-1.4-1.8-3-3.5-4.8-5
	c-0.4-0.3-0.9-0.3-1.2,0L40.7,8.2z"/>
<path class="st0" d="M65,6.1c0-0.3-0.3-0.6-0.6-0.6h-2.6c-0.3,0-0.7,0.2-0.7,0.5c0,0.3,0.2,0.7,0.5,0.7c0.1,0,0.1,0,0.2,0h2.6
	C64.7,6.7,65,6.4,65,6.1C65,6.1,65,6.1,65,6.1z M55.1,8.3C55.4,7.9,55.4,7.3,55,7c0,0,0,0,0,0c-0.6-0.5-1.2-0.9-1.8-1.2
	c-0.4-0.2-0.9-0.1-1.2,0.2l-0.2,0.2c-0.4,0.4-0.3,1.1,0.1,1.5c0,0,0.1,0,0.1,0.1c0.4,0.3,0.9,0.6,1.2,0.9c0.5,0.4,1.2,0.4,1.6-0.1
	c0,0,0,0,0,0L55.1,8.3z M54.7,14c0.3-0.4,0.3-1-0.1-1.3c0,0,0,0,0,0c-0.6-0.4-1.2-0.8-1.9-1.1c-0.4-0.2-0.9-0.1-1.2,0.3l-0.2,0.3
	c-0.4,0.5-0.3,1.1,0.2,1.5c0,0,0.1,0,0.1,0.1c0.4,0.3,0.9,0.6,1.3,0.9c0.5,0.4,1.2,0.3,1.6-0.2L54.7,14z M52.4,24.9
	c0.5,0.3,1.1,0.1,1.4-0.4c0,0,0-0.1,0-0.1c0.6-1.7,1.3-3.5,1.9-5.3c0.1-0.4,0-0.9-0.4-1.1l-0.3-0.2c-0.5-0.3-1.1-0.2-1.4,0.3
	c-0.1,0.1-0.1,0.2-0.1,0.3c-0.6,1.8-1.3,3.6-1.9,5c-0.2,0.5,0,1,0.4,1.3L52.4,24.9z M63.6,14.4c0,0.3-0.2,0.5-0.5,0.5c0,0,0,0,0,0
	H63c-0.3,0-0.5-0.2-0.5-0.5s0.2-0.5,0.5-0.5h0.1C63.4,13.9,63.6,14.1,63.6,14.4C63.6,14.3,63.6,14.3,63.6,14.4L63.6,14.4z
	 M57.4,15.9c0,0.2,0.2,0.3,0.4,0.3l0,0h0.5c0.5,0,0.8-0.4,0.8-0.8c0,0,0,0,0,0v-3.3c0-0.2,0.2-0.4,0.4-0.4h0.1
	c0.1,0,0.3,0.1,0.3,0.2c0,0.1,0.2,0.2,0.3,0.2c0,0,0,0,0.1,0l0.4-0.1c0.3-0.1,0.4-0.4,0.4-0.6c-0.1-0.5-0.3-1-0.5-1.5
	c-0.1-0.3-0.4-0.4-0.7-0.3c0,0,0,0,0,0l-0.3,0.1c-0.1,0-0.2,0.2-0.2,0.3c0,0,0,0,0,0c0.1,0.1,0,0.3-0.2,0.3s-0.3,0-0.3-0.2
	c0-0.1,0-0.2,0.1-0.3c0.4-0.5,0.9-1,1.3-1.6c0.1-0.1,0.2-0.1,0.3,0c0.1,0,0.1,0.1,0.1,0.2c0,0.1,0.1,0.2,0.2,0.2h5
	c0,0,0.1,0,0.1-0.1c0,0,0-0.1,0.1-0.1c0,0,0,0,0.1,0c0.3,0.3,0.6,0.6,0.9,0.9c0.2,0.2,0.2,0.6,0,0.8l0,0c-0.1,0.1-0.3,0.2-0.5,0.2
	c-0.4,0-0.7,0.3-0.7,0.7c0,0,0,0,0,0.1v0.1c0,0.4,0.4,0.7,0.8,0.7h0.8c0.2,0,0.4,0.1,0.4,0.3c0,0,0,0,0,0c0,0.2-0.2,0.3-0.4,0.3
	c0,0-0.1,0-0.1,0l-0.5-0.1c-0.3-0.1-0.5,0.1-0.6,0.4l-0.1,0.3c-0.1,0.4-0.6,0.3-0.6-0.1c0-0.2-0.2-0.4-0.4-0.4h-2.8
	c-0.6,0-1,0.4-1,1V15c0,0.6,0.4,1,1,1H65c0.2,0,0.3-0.1,0.3-0.3c0,0,0,0,0,0c0-0.1,0.1-0.3,0.3-0.3c0,0,0.1,0,0.1,0
	c0.2,0.1,0.3,0.2,0.5,0.3s0.4,0.1,0.4-0.1c0.2-0.3,0.9-0.3,0.9,0.1v0.1c0,0.2,0.1,0.3,0.3,0.3l0,0h0.5c0.5,0,0.8-0.4,0.8-0.8v-3
	c0-0.3,0.2-0.5,0.4-0.5h0.2c0.1,0,0.2,0.1,0.3,0.2c0,0.1,0.1,0.2,0.3,0.2c0,0,0,0,0.1,0l0.5-0.2c0.3-0.1,0.5-0.5,0.4-0.8
	c-0.2-0.5-0.4-1-0.6-1.5c-0.2-0.3-0.5-0.4-0.8-0.3l-0.4,0.2c-0.2,0.1-0.2,0.2-0.2,0.4c0,0,0,0,0,0c0.1,0.1,0,0.3-0.1,0.4
	c0,0-0.1,0-0.1,0l0,0c-0.2,0-0.3-0.1-0.3-0.3c0-0.1,0-0.2,0.1-0.2c0.4-0.5,0.9-1,1.3-1.5C70.4,8,70.3,7.6,70,7.3c0,0-0.1,0-0.1-0.1
	C69.5,7,69,7.1,68.8,7.5c-0.1,0.2-0.3,0.5-0.5,0.7c-0.1,0.1-0.3,0.2-0.4,0c0,0,0,0,0,0c-0.1-0.1-0.1-0.3-0.1-0.4
	c0.3-0.4,0.6-0.8,0.8-1.2c0.2-0.4,0.1-0.8-0.2-1.1c0,0,0,0-0.1,0c-0.4-0.1-0.8,0-1,0.4c-0.2,0.4-0.4,0.8-0.6,1.1
	C66.7,7,66.6,7,66.5,7c0,0,0,0,0,0c-0.1-0.1-0.2-0.1-0.2,0c0,0,0,0,0,0l-0.3,0.4c0,0-0.1,0-0.1,0c0,0,0,0,0-0.1c0-0.1,0-0.1-0.1-0.1
	h-5c-0.1,0-0.1,0.1-0.1,0.1c0,0.1-0.1,0.1-0.1,0.1c0,0,0,0-0.1,0l-0.6-0.4c-0.3-0.1-0.6-0.1-0.8,0.2c-0.1,0.2-0.3,0.4-0.4,0.6
	c-0.1,0.2-0.3,0.2-0.5,0.1c0,0,0,0,0,0c-0.1-0.1-0.1-0.3,0-0.4l0.8-1.2c0.2-0.3,0.1-0.8-0.2-1c0,0-0.1,0-0.1,0
	c-0.4-0.2-0.9,0-1.1,0.4c0,0,0,0,0,0c-0.2,0.4-0.4,0.8-0.6,1.1c-0.1,0.1-0.2,0.1-0.3,0.1c0,0,0,0,0,0c0-0.1-0.1-0.2-0.3-0.2
	c-0.1,0-0.2,0.1-0.2,0.3l0,0l-0.3,0.5c-0.2,0.4-0.1,0.8,0.2,1.1c0.2,0.2,0.5,0.4,0.7,0.6c0.3,0.3,0.3,0.7,0,1
	c-0.1,0.2-0.3,0.3-0.6,0.3H56c-0.4,0-0.8,0.3-0.8,0.7c0,0.4,0.3,0.8,0.7,0.8c0.1,0,0.1,0,0.2,0l0.9-0.1c0.2,0,0.4,0.2,0.4,0.4
	s-0.2,0.4-0.4,0.4c0,0,0,0,0,0l-0.4-0.1c-0.4-0.1-0.7,0.1-0.8,0.5c0,0,0,0,0,0c-0.1,0.5-0.3,1-0.5,1.4c-0.2,0.4,0,0.9,0.4,1.1
	l0.3,0.2c0.1,0.1,0.3,0.1,0.4-0.1c0,0,0,0,0,0C56.6,15.3,57.4,15.4,57.4,15.9L57.4,15.9z M69.9,12.7c-0.4,0.1-0.6,0.5-0.5,0.9
	c0,0,0,0,0,0c0.2,0.4,0.3,0.9,0.4,1.3c0.1,0.4,0.5,0.7,0.9,0.6c0,0,0,0,0.1,0c0.3-0.1,0.5-0.5,0.4-0.8c-0.1-0.5-0.4-1-0.6-1.6
	C70.6,12.7,70.2,12.5,69.9,12.7C69.9,12.6,69.9,12.6,69.9,12.7L69.9,12.7z M61,11.6c0,0.3,0.3,0.6,0.6,0.6h3c0.3,0,0.6-0.2,0.7-0.5
	c0-0.3-0.2-0.6-0.5-0.7c-0.1,0-0.1,0-0.2,0h-3C61.3,11,61.1,11.2,61,11.6L61,11.6z M65.2,9.9c0-0.3-0.3-0.6-0.6-0.6c0,0,0,0,0,0h-3
	c-0.3,0-0.6,0.2-0.6,0.6c0,0,0,0,0,0c0,0.3,0.3,0.6,0.6,0.6c0,0,0,0,0,0h3C64.9,10.5,65.2,10.2,65.2,9.9C65.2,9.8,65.2,9.8,65.2,9.9
	L65.2,9.9z M60.4,15c0.3-0.1,0.5-0.4,0.5-0.8c-0.1-0.4-0.2-0.8-0.3-1.2c-0.1-0.3-0.4-0.5-0.8-0.4c-0.4,0.1-0.6,0.4-0.5,0.8
	c0,0,0,0,0,0c0.1,0.3,0.1,0.7,0.2,1C59.6,14.8,60,15.1,60.4,15C60.3,15,60.3,15,60.4,15z M59.8,20.9c-0.2,0-0.3-0.2-0.3-0.3
	c0,0,0-0.1,0-0.1c0-0.2,0.2-0.3,0.3-0.2h8.5c0.6,0,1-0.4,1-1v-1.6c0-0.6-0.4-1-1-1H57.6c-0.4,0-0.7,0.4-0.6,0.8
	c0,0.3,0.3,0.6,0.6,0.6h9c0.2,0,0.3,0.2,0.3,0.3s-0.2,0.3-0.3,0.3h-8.2c-0.5,0-0.9,0.3-1,0.8c-0.2,0.7-0.3,1.5-0.5,2.1
	c-0.2,0.6,0.1,1.1,0.7,1.3c0,0,0.1,0,0.1,0l0.8,0.1c0.2,0,0.4-0.1,0.5-0.3c0.1-0.2,0.2-0.3,0.4-0.3h7c0.7,0,1.2,0.8,0.7,1.1
	c-0.3,0.2-0.6,0.2-0.9,0.2c-0.4,0-1.1,0-1.9,0c-0.6,0-1,0.7-0.8,1.2c0.1,0.3,0.4,0.6,0.7,0.6c1.1,0,2.2,0,2.8,0c0.7,0,1.4-0.2,2-0.6
	c0.6-0.5,1-1.5,1.4-3.2c0.1-0.4-0.1-0.9-0.6-1c-0.1,0-0.2,0-0.3,0L59.8,20.9z"/>
<path class="st0" d="M85.6,20.3c0-0.6,0.4-1,1-1h5c0.6,0,1-0.4,1-1V18c0-0.6-0.4-1-1-1h-5c-0.6,0-1-0.4-1-1v-0.7c0-0.6,0.4-1,1-1
	h6.5c0.6,0,1-0.4,1-1v-0.4c0-0.6-0.4-1-1-1h-6.5c-0.6,0-1-0.4-1-1v-0.1c0-0.6,0.4-1,1-1h4.8c0.6,0,1-0.4,1-1V8.4c0-0.6-0.4-1-1-1
	h-4.8c-0.6,0-1-0.4-1-1V6.1c0-0.6-0.4-1-1-1h-0.7c-0.6,0-1,0.4-1,1v0.2c0,0.6-0.4,1-1,1h-4.4c-0.6,0-1,0.4-1,1v0.4c0,0.6,0.4,1,1,1
	h4.4c0.6,0,1,0.4,1,1v0.1c0,0.6-0.4,1-1,1h-6.3c-0.6,0-1,0.4-1,1v0.4c0,0.6,0.4,1,1,1h6.3c0.6,0,1,0.4,1,1v4.8
	c0,0.5-0.3,0.9-0.8,0.9c-0.2,0-0.4,0-0.6-0.2c-0.7-0.6-1.2-1.3-1.6-2.1c-0.1-0.2-0.1-0.5-0.1-0.7c0.1-0.5,0.2-1,0.3-1.5
	c0.1-0.5-0.3-1.1-0.8-1.2c0,0,0,0,0,0l-0.7-0.1c-0.5-0.1-1.1,0.3-1.1,0.9c0,0,0,0,0,0c-0.3,2.4-1.2,4.8-2.7,6.7
	c-0.5,0.6-0.4,1.4,0.1,1.9l0.1,0.1c0.4,0.4,1,0.4,1.4,0c0.6-0.6,1.1-1.3,1.5-2c0.4-0.6,1.2-0.8,1.8-0.4c0.1,0,0.2,0.1,0.2,0.2
	c2.2,2.2,5.3,2.7,9,2.7h4c0.5,0,0.9-0.3,1-0.8c0.2-0.7-0.2-1.4-0.9-1.7c-0.1,0-0.2,0-0.2,0h-3.8c-0.9,0-1.8,0-2.7-0.1
	c-0.5-0.1-0.8-0.5-0.8-1V20.3z"/>
<path class="st0" d="M108.9,20.3c0-0.6,0.4-1,1-1h5c0.6,0,1-0.4,1-1V18c0-0.6-0.4-1-1-1h-5c-0.6,0-1-0.4-1-1v-0.7c0-0.6,0.4-1,1-1
	h6.5c0.6,0,1-0.4,1-1v-0.4c0-0.6-0.4-1-1-1h-6.5c-0.6,0-1-0.4-1-1v-0.1c0-0.6,0.4-1,1-1h4.8c0.6,0,1-0.4,1-1V8.4c0-0.6-0.4-1-1-1
	h-4.8c-0.6,0-1-0.4-1-1V6.1c0-0.6-0.4-1-1-1h-0.7c-0.6,0-1,0.4-1,1v0.2c0,0.6-0.4,1-1,1h-4.4c-0.6,0-1,0.4-1,1v0.4c0,0.6,0.4,1,1,1
	h4.4c0.6,0,1,0.4,1,1v0.1c0,0.6-0.4,1-1,1h-6.3c-0.6,0-1,0.4-1,1v0.4c0,0.6,0.4,1,1,1h6.3c0.6,0,1,0.4,1,1v4.8
	c0,0.5-0.3,0.9-0.8,0.9c-0.2,0-0.4,0-0.6-0.2c-0.7-0.6-1.2-1.3-1.6-2.1c-0.1-0.2-0.1-0.5-0.1-0.7c0.1-0.5,0.2-1,0.3-1.5
	c0.1-0.5-0.3-1.1-0.8-1.2c0,0,0,0,0,0l-0.7-0.1c-0.5-0.1-1.1,0.3-1.1,0.9c0,0,0,0,0,0c-0.3,2.4-1.2,4.8-2.6,6.7
	c-0.5,0.6-0.4,1.4,0.1,1.9l0.1,0.1c0.4,0.4,1,0.4,1.4,0c0.6-0.6,1.1-1.3,1.5-2c0.4-0.6,1.2-0.8,1.8-0.4c0.1,0,0.2,0.1,0.2,0.2
	c2.2,2.2,5.3,2.7,9,2.7h4c0.5,0,0.9-0.3,1-0.8c0.2-0.7-0.1-1.5-0.8-1.7c-0.1,0-0.3-0.1-0.4-0.1h-3.7c-0.9,0-1.8,0-2.7-0.1
	c-0.5-0.1-0.8-0.5-0.8-1L108.9,20.3z"/>
</svg>
