<svg id="searh-none" xmlns="http://www.w3.org/2000/svg" viewBox="0 0 72 69.87"><defs><style>.cls-1{fill:#adb5bd;}</style></defs><path class="cls-1" d="M3.27,69.87H49.09a3.28,3.28,0,0,0,3.27-3.28V50.16l.36-.23L70.13,67.36a1.07,1.07,0,0,0,.35.25,1.27,1.27,0,0,0,.43.09,1.2,1.2,0,0,0,.42-.08,1.1,1.1,0,0,0,.6-.6A1.2,1.2,0,0,0,72,66.6a1,1,0,0,0-.09-.42,1.26,1.26,0,0,0-.24-.36L54.41,48.54a14.15,14.15,0,0,0-2.06-22.28V20.5a1.07,1.07,0,0,0-.19-.42V20L34.63.37h0a1,1,0,0,0-.48-.29L34,0H3.27A3.29,3.29,0,0,0,0,3.27V66.59A3.28,3.28,0,0,0,3.27,69.87ZM56.72,38.21a12,12,0,1,1-12-12A12,12,0,0,1,56.72,38.21ZM34.91,4,48.84,19.65H36c-.48,0-1.09-.92-1.09-1.64ZM2.18,3.27A1.16,1.16,0,0,1,2.5,2.5a1.12,1.12,0,0,1,.77-.32H32.72V18c0,1.77,1.43,3.82,3.28,3.82H50.18V25.1a14.11,14.11,0,0,0-15.66,3.27H12a1.1,1.1,0,0,0,0,2.19H32.79a14.18,14.18,0,0,0-2.19,6.55H12a1.11,1.11,0,0,0,0,2.21H30.6a14.07,14.07,0,0,0,2.19,6.55H12a1.1,1.1,0,0,0-.77.32A1.09,1.09,0,0,0,12,48H34.49a14.11,14.11,0,0,0,15.69,3.3V66.59a1.1,1.1,0,0,1-.32.77,1.06,1.06,0,0,1-.77.32H3.27a1.08,1.08,0,0,1-1.09-1.07V3.27Z" transform="translate(0 0)"/><path class="cls-1" d="M12,21.83H25.09a1.08,1.08,0,1,0,0-2.15H12a1.08,1.08,0,0,0,0,2.15Z" transform="translate(0 0)"/><path class="cls-1" d="M12,56.77H40.36a1.1,1.1,0,0,0,0-2.19H12a1.1,1.1,0,0,0,0,2.19Z" transform="translate(0 0)"/></svg>
