<svg id="loading-car" data-name="loading-car" xmlns="http://www.w3.org/2000/svg" viewBox="0 0 100 100"><defs><style>.cls-1{fill:#fae06a;}</style></defs><path class="cls-1" d="M28.26,70.13c-6.42,0-11.65,6.7-11.65,14.93S21.84,100,28.26,100s11.66-6.7,11.66-14.94S34.69,70.13,28.26,70.13Zm0,25.09c-4.36,0-7.92-4.56-7.92-10.16s3.56-10.15,7.92-10.15,7.93,4.56,7.93,10.15S32.63,95.22,28.26,95.22Z"/><path class="cls-1" d="M75.44,70.13c-6.43,0-11.66,6.7-11.66,14.93S69,100,75.44,100s11.65-6.7,11.65-14.94S81.86,70.13,75.44,70.13Zm0,25.09c-4.37,0-7.93-4.56-7.93-10.16s3.56-10.15,7.93-10.15,7.92,4.56,7.92,10.15S79.81,95.22,75.44,95.22Z"/><path class="cls-1" d="M98.13,0H40.28a1.5,1.5,0,0,0-.55.11C12.82,10.81,12.37,14.22,12.18,15.68a2.61,2.61,0,0,0,0,.4v2.75A2.2,2.2,0,0,0,14,21.23l6.25.09H98.13A2.18,2.18,0,0,0,100,18.93V2.39A2.18,2.18,0,0,0,98.13,0ZM96.27,16.53h-76l-4-.06C19.3,14,30.6,8.76,40.56,4.78H96.27Z"/><path class="cls-1" d="M98,69H96.44V37.56c0-5.3-3.37-9.62-7.52-9.62H29c-4.27,0-21.08,18.36-24.65,26.92C3,58.17,3.08,63.94,3.54,69H1.87A2.19,2.19,0,0,0,0,71.38v9.69a2.19,2.19,0,0,0,1.87,2.4H12.38a2.07,2.07,0,0,0,1.83-1.94c1.31-8.59,7.22-14.82,14.05-14.82S41,72.94,42.32,81.53a2.07,2.07,0,0,0,1.83,1.94H59.59a2.07,2.07,0,0,0,1.83-1.94c1.31-8.59,7.22-14.82,14-14.82s12.75,6.23,14.06,14.82a2.06,2.06,0,0,0,1.83,1.94H98a2.19,2.19,0,0,0,1.87-2.4V71.38A2.19,2.19,0,0,0,98,69Zm-1.87,9.7H92.83c-2.19-9.82-9.26-16.75-17.36-16.75S60.31,68.86,58.12,78.68H45.62c-2.19-9.82-9.26-16.75-17.36-16.75S13.1,68.86,10.91,78.68H3.73V73.77H5.68a1.73,1.73,0,0,0,1.42-.84A2.92,2.92,0,0,0,7.53,71c-.8-6.6-.75-11.8.13-13.9C11,49.15,26.54,33.21,29,32.72h59.9c2.09,0,3.78,2.17,3.78,4.84V71.38a2.18,2.18,0,0,0,1.87,2.39h1.55Z"/><path class="cls-1" d="M38.51,36.62c-.1,0-2.3-.19-4.51-.19-3.43,0-4.54.42-5.22,1.09-1.07,1.06-6.21,8-7.76,10.17a2.94,2.94,0,0,0-.35,2.59,1.93,1.93,0,0,0,1.71,1.44H38.3a2.18,2.18,0,0,0,1.87-2.36L40.25,39A2.21,2.21,0,0,0,38.51,36.62ZM36.45,47H26.72c1.93-2.6,3.63-4.82,4.21-5.49A12.9,12.9,0,0,1,34,41.22c.88,0,1.76,0,2.5.06Z"/><path class="cls-1" d="M84.1,47H47.3V39a2.18,2.18,0,0,0-1.87-2.39A2.18,2.18,0,0,0,43.56,39V49.34a2.18,2.18,0,0,0,1.87,2.39H84.1a2.46,2.46,0,0,0,0-4.78Z"/></svg>